<svg xmlns="http://www.w3.org/2000/svg" viewBox="0 0 211.58 31.54"><defs><style>.cls-1{fill:#fff;}.cls-2{fill:none;stroke:#f9f9f9;stroke-miterlimit:10;}</style></defs><g id="Layer_2" data-name="Layer 2"><g id="Layer_1-2" data-name="Layer 1"><path class="cls-1" d="M99.39,13.11a2.2,2.2,0,0,0-.83-1.62A3.77,3.77,0,0,0,96.45,11a4.37,4.37,0,0,0-1.82.3,1,1,0,0,0-.64,1,1.15,1.15,0,0,0,.64,1.07,8,8,0,0,0,1.92.72c.89.26,1.74.49,2.56.69a17.7,17.7,0,0,1,2.14.66,4.47,4.47,0,0,1,1.92,1.39,3.88,3.88,0,0,1,.67,2.41,4.6,4.6,0,0,1-1.74,3.84A8.18,8.18,0,0,1,97,24.5,8.77,8.77,0,0,1,91.38,23a5,5,0,0,1-2-3.93h4.29a2,2,0,0,0,.86,1.73,4.18,4.18,0,0,0,2.4.6A4.85,4.85,0,0,0,98.88,21a1.29,1.29,0,0,0,.83-1.27A1.21,1.21,0,0,0,99,18.55a9.35,9.35,0,0,0-1.77-.61c-1.33-.32-2.39-.61-3.2-.86a8.34,8.34,0,0,1-2-.93,3.92,3.92,0,0,1-1.55-1.6,4.43,4.43,0,0,1-.44-2,4.82,4.82,0,0,1,.36-1.86,3.5,3.5,0,0,1,1.15-1.49,5.89,5.89,0,0,1,2.06-1,11.27,11.27,0,0,1,3.06-.36,7.91,7.91,0,0,1,5,1.32,5.11,5.11,0,0,1,1.77,3.87Z"/><path class="cls-1" d="M115.1,24.08V14.32a3.55,3.55,0,0,0-.62-2.44,2.74,2.74,0,0,0-2.06-.66,3.08,3.08,0,0,0-1.38.3,3,3,0,0,0-1,.84,3.58,3.58,0,0,0-.63,1.21,5.11,5.11,0,0,0-.2,1.49v9H105V2.58h4.17v7.81a3,3,0,0,1,.68-1,4.39,4.39,0,0,1,1.07-.78,6.19,6.19,0,0,1,1.35-.51,5.94,5.94,0,0,1,1.53-.2,5.83,5.83,0,0,1,4,1.33A4.67,4.67,0,0,1,119.3,13V24.08Z"/><path class="cls-1" d="M128.86,24.5a9,9,0,0,1-3.42-.61,7.16,7.16,0,0,1-2.54-1.69,7.27,7.27,0,0,1-1.59-2.63,10,10,0,0,1-.54-3.36,9.92,9.92,0,0,1,.56-3.39,7.27,7.27,0,0,1,1.61-2.62,7.18,7.18,0,0,1,2.55-1.68,9,9,0,0,1,3.37-.6,8.75,8.75,0,0,1,3.33.6,7,7,0,0,1,4.11,4.27,9.74,9.74,0,0,1,.56,3.42,9.64,9.64,0,0,1-.56,3.41,7.38,7.38,0,0,1-1.6,2.61,7.15,7.15,0,0,1-2.52,1.68A9,9,0,0,1,128.86,24.5Zm0-3.49q3.81,0,3.81-4.8t-3.81-4.77q-3.8,0-3.8,4.77T128.86,21Z"/><path class="cls-1" d="M138.37,31.54V8.34h4l0,1.92a4.79,4.79,0,0,1,4.38-2.34,6.56,6.56,0,0,1,2.74.58,6,6,0,0,1,2.16,1.66,8.12,8.12,0,0,1,1.41,2.66,11.48,11.48,0,0,1,.51,3.55,11.63,11.63,0,0,1-.43,3.28,7.78,7.78,0,0,1-1.27,2.58,5.78,5.78,0,0,1-2,1.68,6.15,6.15,0,0,1-2.73.59A5.49,5.49,0,0,1,142.46,22v9.5ZM145.79,21q3.59,0,3.59-4.87a5.64,5.64,0,0,0-1-3.44,3.06,3.06,0,0,0-2.56-1.32,3.1,3.1,0,0,0-2.51,1.24,5.07,5.07,0,0,0-1,3.27C142.3,19.24,143.47,21,145.79,21Z"/><path class="cls-1" d="M154.69,15.86V12.63h7.93v3.23Z"/><path class="cls-1" d="M173.92,24.08a6.6,6.6,0,0,1-.26-1.4A5.17,5.17,0,0,1,171.71,24a7.42,7.42,0,0,1-2.81.5,5.63,5.63,0,0,1-4-1.2,4.11,4.11,0,0,1-1.26-3.12,5.73,5.73,0,0,1,.54-2.7,4.06,4.06,0,0,1,1.51-1.59A7.57,7.57,0,0,1,168,15c.89-.18,1.85-.34,2.9-.49A5.71,5.71,0,0,0,173,14a1.36,1.36,0,0,0,.55-1.2,1.32,1.32,0,0,0-.72-1.2,3.74,3.74,0,0,0-1.94-.44,2.81,2.81,0,0,0-2.06.64,3,3,0,0,0-.79,1.7h-3.87a7,7,0,0,1,.4-2.24,4.38,4.38,0,0,1,1.18-1.76,5.69,5.69,0,0,1,2.13-1.14,11.35,11.35,0,0,1,3.2-.4,10.27,10.27,0,0,1,3.15.42,5.08,5.08,0,0,1,2.08,1.2,4.43,4.43,0,0,1,1.14,2,9.32,9.32,0,0,1,.35,2.64v9.95Zm-.29-7.71a2.06,2.06,0,0,1-.93.51,16.07,16.07,0,0,1-1.76.42,5.94,5.94,0,0,0-2.46.9,1.88,1.88,0,0,0-.67,1.56c0,1.18.67,1.76,2,1.76a4,4,0,0,0,1.49-.27,3.67,3.67,0,0,0,1.19-.73,3.94,3.94,0,0,0,.8-1.09,3,3,0,0,0,.3-1.33Z"/><path class="cls-1" d="M179.62,31.54V8.34h4l0,1.92A4.79,4.79,0,0,1,188,7.92a6.63,6.63,0,0,1,2.74.58,6,6,0,0,1,2.16,1.66,8.51,8.51,0,0,1,1.41,2.66,11.48,11.48,0,0,1,.51,3.55,12,12,0,0,1-.43,3.28,7.78,7.78,0,0,1-1.27,2.58,5.78,5.78,0,0,1-2,1.68,6.17,6.17,0,0,1-2.74.59A5.47,5.47,0,0,1,183.71,22v9.5ZM187,21q3.59,0,3.58-4.87a5.63,5.63,0,0,0-1-3.44,3.06,3.06,0,0,0-2.56-1.32,3.1,3.1,0,0,0-2.51,1.24,5.07,5.07,0,0,0-1,3.27Q183.55,20.94,187,21Z"/><path class="cls-1" d="M196.35,31.54V8.34h4l0,1.92a4.8,4.8,0,0,1,4.39-2.34,6.55,6.55,0,0,1,2.73.58,5.86,5.86,0,0,1,2.16,1.66,8.12,8.12,0,0,1,1.41,2.66,11.48,11.48,0,0,1,.51,3.55,11.63,11.63,0,0,1-.43,3.28,8,8,0,0,1-1.26,2.58,5.87,5.87,0,0,1-2,1.68,6.2,6.2,0,0,1-2.74.59A5.47,5.47,0,0,1,200.45,22v9.5ZM203.78,21c2.38,0,3.58-1.62,3.58-4.87a5.63,5.63,0,0,0-1-3.44,3.15,3.15,0,0,0-5.07-.08,5,5,0,0,0-1,3.27Q200.29,20.94,203.78,21Z"/><path class="cls-1" d="M36,29H0a12.8,12.8,0,0,0,4-5C6.07,19.52,7.49,12.7,8.58,9.92A14.27,14.27,0,0,1,22,1,14.12,14.12,0,0,1,34.89,8.63,9.28,9.28,0,0,0,31.5,8c-4.8,0-8.85,3.58-8.7,8C23,22,36,29,36,29Z"/><line class="cls-2" x1="55.5" x2="55.5" y2="29"/><polyline class="cls-2" points="51.68 2.26 55.54 5.48 59.41 2.26"/><polyline class="cls-2" points="51.68 27.39 55.54 24.17 59.41 27.39"/><line class="cls-2" x1="42.96" y1="7.29" x2="68.08" y2="21.79"/><polyline class="cls-2" points="43.01 11.73 47.73 9.99 46.87 5.03"/><polyline class="cls-2" points="64.77 24.29 63.91 19.33 68.64 17.6"/><line class="cls-2" x1="43.01" y1="21.79" x2="68.12" y2="7.29"/><polyline class="cls-2" points="46.87 23.97 47.73 19.01 43.01 17.27"/><polyline class="cls-2" points="68.64 11.4 63.91 9.67 64.77 4.71"/></g></g></svg>