<svg xmlns="http://www.w3.org/2000/svg" viewBox="0 0 489 75.73"><defs><style>.cls-1{fill:#fff;}.cls-2{fill:none;stroke:#f9f9f9;stroke-miterlimit:10;stroke-width:5px;}</style></defs><g id="Layer_2" data-name="Layer 2"><g id="Layer_1-2" data-name="Layer 1"><path class="cls-1" d="M219.64,31.47a5.35,5.35,0,0,0-2-3.88,9.12,9.12,0,0,0-5.07-1.11,10.4,10.4,0,0,0-4.38.73,2.49,2.49,0,0,0-1.54,2.42,2.79,2.79,0,0,0,1.54,2.57,20.36,20.36,0,0,0,4.61,1.73q3.22.93,6.15,1.65a47.57,47.57,0,0,1,5.14,1.58,10.72,10.72,0,0,1,4.61,3.34,9.32,9.32,0,0,1,1.62,5.8,11.09,11.09,0,0,1-4.19,9.22q-4.19,3.3-12.33,3.3-8.76,0-13.41-3.69a11.93,11.93,0,0,1-4.8-9.44h10.3A4.76,4.76,0,0,0,208,49.83a9.82,9.82,0,0,0,5.76,1.46,11.51,11.51,0,0,0,4.69-.88,3.09,3.09,0,0,0,2-3,2.93,2.93,0,0,0-1.81-2.85,24,24,0,0,0-4.26-1.46q-4.77-1.16-7.69-2.07a20.21,20.21,0,0,1-4.91-2.23A9.57,9.57,0,0,1,198,34.93a10.67,10.67,0,0,1-1-4.69,11.56,11.56,0,0,1,.85-4.45,8.57,8.57,0,0,1,2.76-3.58,14.12,14.12,0,0,1,5-2.34,27.77,27.77,0,0,1,7.34-.85q8.22,0,12.1,3.16t4.26,9.29Z"/><path class="cls-1" d="M257.36,57.82V34.39q0-4.3-1.5-5.88c-1-1-2.65-1.57-5-1.57a7.11,7.11,0,0,0-5.77,2.73,8.67,8.67,0,0,0-1.49,2.92,12,12,0,0,0-.5,3.57V57.82h-10V6.19h10V24.94a7.55,7.55,0,0,1,1.65-2.34,10.57,10.57,0,0,1,2.57-1.88,15.16,15.16,0,0,1,6.92-1.7,14,14,0,0,1,9.49,3.19,11.19,11.19,0,0,1,3.65,8.88V57.82Z"/><path class="cls-1" d="M290.4,58.82a21.6,21.6,0,0,1-8.22-1.46,17.19,17.19,0,0,1-6.11-4.07,17.42,17.42,0,0,1-3.81-6.3,24,24,0,0,1-1.3-8.07,23.8,23.8,0,0,1,1.34-8.14,17.57,17.57,0,0,1,3.88-6.3,17.37,17.37,0,0,1,6.11-4A21.72,21.72,0,0,1,290.4,19a21.23,21.23,0,0,1,8,1.43,17.46,17.46,0,0,1,6,4,17.65,17.65,0,0,1,3.84,6.26,23.78,23.78,0,0,1,1.34,8.22,23.45,23.45,0,0,1-1.34,8.19,18,18,0,0,1-3.84,6.26,17,17,0,0,1-6.07,4A21.27,21.27,0,0,1,290.4,58.82Zm0-8.37q9.14,0,9.14-11.53T290.4,27.48q-9.15,0-9.15,11.44T290.4,50.45Z"/><path class="cls-1" d="M313.21,75.73V20h9.61l.07,4.61C325.2,20.9,328.71,19,333.42,19A15.67,15.67,0,0,1,340,20.41a14.42,14.42,0,0,1,5.19,4,19.56,19.56,0,0,1,3.38,6.38,27.7,27.7,0,0,1,1.23,8.53,28.18,28.18,0,0,1-1,7.87,18.55,18.55,0,0,1-3,6.19,13.66,13.66,0,0,1-4.88,4,14.61,14.61,0,0,1-6.56,1.42,13.13,13.13,0,0,1-11.22-5.91V75.73ZM331,50.3q8.59,0,8.6-11.68a13.42,13.42,0,0,0-2.38-8.26,7.34,7.34,0,0,0-6.14-3.19,7.47,7.47,0,0,0-6,3A12.09,12.09,0,0,0,322.66,38Q322.66,50.3,331,50.3Z"/><path class="cls-1" d="M352.4,38.08V30.32h19.05v7.76Z"/><path class="cls-1" d="M398.57,57.82a14.92,14.92,0,0,1-.61-3.38,12.22,12.22,0,0,1-4.69,3.19,17.7,17.7,0,0,1-6.76,1.19q-6.52,0-9.57-2.88a9.87,9.87,0,0,1-3-7.49A13.59,13.59,0,0,1,375.22,42a9.71,9.71,0,0,1,3.61-3.8,17.19,17.19,0,0,1,5.49-2c2.13-.43,4.44-.83,6.95-1.19a13.41,13.41,0,0,0,5.07-1.42,3.51,3.51,0,0,0-.42-5.76,9,9,0,0,0-4.65-1q-3.45,0-4.95,1.54a7.2,7.2,0,0,0-1.89,4.07h-9.29a17.08,17.08,0,0,1,1-5.38,10.39,10.39,0,0,1,2.84-4.23A13.43,13.43,0,0,1,384.05,20a26.59,26.59,0,0,1,7.68-1,25.16,25.16,0,0,1,7.57,1,12.21,12.21,0,0,1,5,2.89A10.92,10.92,0,0,1,407,27.59a21.76,21.76,0,0,1,.85,6.34V57.82Zm-.69-18.51a5.47,5.47,0,0,1-2.23,1.23,40.38,40.38,0,0,1-4.22,1q-4.31.84-5.92,2.15a4.54,4.54,0,0,0-1.61,3.76q0,4.23,4.84,4.23a9.52,9.52,0,0,0,3.57-.66,8.79,8.79,0,0,0,2.84-1.76,8.7,8.7,0,0,0,1.92-2.61,7.17,7.17,0,0,0,.73-3.19Z"/><path class="cls-1" d="M412.25,75.73V20h9.6l.08,4.61c2.3-3.73,5.81-5.61,10.52-5.61A15.67,15.67,0,0,1,439,20.41a14.34,14.34,0,0,1,5.19,4,19.56,19.56,0,0,1,3.38,6.38,27.4,27.4,0,0,1,1.23,8.53,28.18,28.18,0,0,1-1,7.87,18.54,18.54,0,0,1-3,6.19,13.83,13.83,0,0,1-4.88,4,14.62,14.62,0,0,1-6.57,1.42,13.15,13.15,0,0,1-11.22-5.91V75.73ZM430.07,50.3q8.61,0,8.61-11.68a13.49,13.49,0,0,0-2.38-8.26,7.35,7.35,0,0,0-6.15-3.19,7.44,7.44,0,0,0-6,3A12,12,0,0,0,421.7,38Q421.7,50.3,430.07,50.3Z"/><path class="cls-1" d="M452.43,75.73V20H462l.08,4.61c2.3-3.73,5.81-5.61,10.53-5.61a15.66,15.66,0,0,1,6.56,1.39,14.25,14.25,0,0,1,5.19,4,19.56,19.56,0,0,1,3.38,6.38A27.4,27.4,0,0,1,489,39.31a28.18,28.18,0,0,1-1,7.87,18.54,18.54,0,0,1-3,6.19,13.74,13.74,0,0,1-4.88,4,14.62,14.62,0,0,1-6.57,1.42,13.15,13.15,0,0,1-11.22-5.91V75.73ZM470.25,50.3q8.61,0,8.61-11.68a13.49,13.49,0,0,0-2.38-8.26,7.35,7.35,0,0,0-6.15-3.19,7.44,7.44,0,0,0-6,3A12.09,12.09,0,0,0,461.88,38Q461.88,50.3,470.25,50.3Z"/><path class="cls-1" d="M86.43,69.63H0a30.58,30.58,0,0,0,9.6-12c5-10.76,8.39-27.14,11-33.8A34.28,34.28,0,0,1,52.82,2.4c13.9,0,25.86,7.56,30.95,18.32a22.39,22.39,0,0,0-8.14-1.51c-11.52,0-21.24,8.6-20.89,19.21C55.22,52.82,86.43,69.63,86.43,69.63Z"/><line class="cls-2" x1="133.25" x2="133.25" y2="69.63"/><polyline class="cls-2" points="124.07 5.42 133.35 13.15 142.64 5.42"/><polyline class="cls-2" points="124.07 65.76 133.35 58.02 142.64 65.76"/><line class="cls-2" x1="103.15" y1="17.49" x2="163.45" y2="52.31"/><polyline class="cls-2" points="103.25 28.15 114.59 23.98 112.54 12.07"/><polyline class="cls-2" points="155.51 58.33 153.45 46.42 164.8 42.25"/><line class="cls-2" x1="103.26" y1="52.31" x2="163.55" y2="17.49"/><polyline class="cls-2" points="112.54 57.55 114.59 45.65 103.25 41.47"/><polyline class="cls-2" points="164.8 27.38 153.45 23.21 155.51 11.3"/></g></g></svg>