<svg xmlns="http://www.w3.org/2000/svg" viewBox="0 0 45.29 42.69"><defs><style>.cls-1{fill:#f2f2f2;}.cls-2{fill:none;stroke:#f2f2f2;stroke-linecap:round;stroke-linejoin:round;stroke-width:2.63px;}</style></defs><g id="Layer_2" data-name="Layer 2"><g id="Layer_1-2" data-name="Layer 1"><path class="cls-1" d="M40.76,26.28H15.4A1.27,1.27,0,0,1,14.13,25L10.85,6.55a1.27,1.27,0,0,1,1.26-1.29H44a1.27,1.27,0,0,1,1.28,1.27v0L42,25A1.32,1.32,0,0,1,40.76,26.28Z"/><circle class="cls-1" cx="19.05" cy="38.42" r="4.27"/><circle class="cls-1" cx="36.46" cy="38.42" r="4.27"/><polyline class="cls-2" points="1.31 1.31 11.16 1.31 12.48 7.88"/><path class="cls-2" d="M14.78,25S13.14,27.3,13.14,29c0,2,2.3,3.94,2.3,3.94H41.6"/></g></g></svg>