<svg xmlns="http://www.w3.org/2000/svg" viewBox="0 0 45.31 42.69"><defs><style>.cls-1{fill:#f2f2f2;}.cls-2{fill:none;stroke:#f2f2f2;stroke-linecap:round;stroke-linejoin:round;stroke-width:2.63px;}</style></defs><g id="Layer_2" data-name="Layer 2"><g id="Layer_1-2" data-name="Layer 1"><path class="cls-1" d="M40.75,26.27H15.4A1.28,1.28,0,0,1,14.12,25L10.84,6.54a1.28,1.28,0,0,1,1.28-1.29H44a1.28,1.28,0,0,1,1.28,1.29L42,25A1.29,1.29,0,0,1,40.75,26.27Z"/><circle class="cls-1" cx="19.04" cy="38.42" r="4.27"/><circle class="cls-1" cx="36.45" cy="38.42" r="4.27"/><polyline class="cls-2" points="1.31 1.31 11.16 1.31 12.48 7.88"/><path class="cls-2" d="M14.78,25s-1.65,2.29-1.65,3.94c0,2,2.3,3.94,2.3,3.94H41.59"/></g></g></svg>