<svg xmlns="http://www.w3.org/2000/svg" viewBox="0 0 68.81 29"><defs><style>.cls-1{fill:#fff;}.cls-2{fill:none;stroke:#f9f9f9;stroke-miterlimit:10;}</style></defs><g id="Layer_2" data-name="Layer 2"><g id="Layer_1-2" data-name="Layer 1"><path class="cls-1" d="M36,29H0a12.8,12.8,0,0,0,4-5C6.07,19.52,7.49,12.7,8.58,9.92A14.27,14.27,0,0,1,22,1,14.12,14.12,0,0,1,34.89,8.63,9.28,9.28,0,0,0,31.5,8c-4.8,0-8.85,3.58-8.7,8C23,22,36,29,36,29Z"/><line class="cls-2" x1="55.5" x2="55.5" y2="29"/><polyline class="cls-2" points="51.68 2.26 55.54 5.48 59.41 2.26"/><polyline class="cls-2" points="51.68 27.39 55.54 24.17 59.41 27.39"/><line class="cls-2" x1="42.96" y1="7.29" x2="68.08" y2="21.79"/><polyline class="cls-2" points="43.01 11.73 47.73 9.99 46.87 5.03"/><polyline class="cls-2" points="64.77 24.29 63.91 19.33 68.64 17.6"/><line class="cls-2" x1="43.01" y1="21.79" x2="68.12" y2="7.29"/><polyline class="cls-2" points="46.87 23.97 47.73 19.01 43.01 17.27"/><polyline class="cls-2" points="68.64 11.4 63.91 9.67 64.77 4.71"/></g></g></svg>